v 0.214648 0.113467 -4.604073
v 6.437912 0.113467 -4.604073
v 6.437912 3.40319 -4.604073
v 0.214648 3.40319 -4.604073
v 0.214648 0.113467 0.0
v 6.437912 0.113467 0.0
v 6.437912 3.40319 0.0
v 0.214648 3.40319 0.0
v 0.0 0.0 0.0
v 6.6525599631 0.0 0.0
v 6.6525599631 3.5166568185 0.0
v 0.0 3.5166568185 0.0
v 0.0 1.0549970455368758 1.367282519307272
v 6.652559963054047 1.0549970455368758 1.367282519307272
v 0.0 1.7583284092281264 1.6434731651805308
v 6.652559963054047 1.7583284092281264 1.6434731651805308
v 0.0 2.461659772919377 1.367282519307272
v 6.652559963054047 2.461659772919377 1.367282519307272
f 1 4 8 5
f 3 4 8 7
f 3 7 8 4
f 1 5 8 4
f 9 13 14 10
f 13 14 16 15
f 9 10 14 13
f 13 15 16 14
f 15 17 18 16
f 15 16 18 17
f 5 9 10 6
f 9 10 11 12
f 5 6 10 9
f 9 12 11 10
f 1 5 6 2
f 5 6 7 8
f 5 8 7 6
f 1 2 6 5
f 6 7 11 10
f 2 6 7 3
f 6 10 11 7
f 2 3 7 6
f 5 9 12 8
f 5 8 12 9
f 11 12 17 18
f 7 11 12 8
f 11 18 17 12
f 7 8 12 11
f 1 2 3 4
f 9 12 17
f 9 17 15
f 15 13 9
f 10 11 18
f 10 18 16
f 16 14 10
