v 0.180865 0.114743 -4.128308
v 5.86779 0.114743 -4.128308
v 5.86779 3.722603 -4.128308
v 0.180865 3.722603 -4.128308
v 0.180865 0.114743 0.0
v 5.86779 0.114743 0.0
v 5.86779 3.722603 0.0
v 0.180865 3.722603 0.0
v 0.0 0.0 0.0
v 6.0486557085 0.0 0.0
v 6.0486557085 3.8373460978 0.0
v 0.0 3.8373460978 0.0
v 0.0 1.151203829336794 1.1704406809575305
v 6.048655708499007 1.151203829336794 1.1704406809575305
v 0.0 1.918673048894657 1.5210364629661153
v 6.048655708499007 1.918673048894657 1.5210364629661153
v 0.0 2.6861422684525196 1.1704406809575305
v 6.048655708499007 2.6861422684525196 1.1704406809575305
l 4 8
l 13 14
l 15 17
l 9 10
l 9 13
l 16 18
l 5 6
l 6 7
l 5 9
l 6 10
l 15 16
l 9 12
l 1 2
l 10 11
l 2 3
l 1 5
l 11 12
l 10 14
l 2 6
l 12 17
l 11 18
l 7 8
l 7 11
l 5 8
l 13 15
l 1 4
l 3 4
l 3 7
l 14 16
l 8 12
l 17 18
