v 1.915762 -2.227449 -5.387966
v 5.317336 -2.227449 -5.387966
v 5.317336 0.133668 -5.387966
v 6.797811 0.133668 -5.387966
v 6.797811 4.855901 -5.387966
v 0.220263 4.855901 -5.387966
v 0.220263 0.133668 -5.387966
v 1.915944 0.133668 -5.387966
v 1.915762 -2.227449 0.0
v 5.317336 -2.227449 0.0
v 5.317336 0.133668 0.0
v 6.797811 0.133668 0.0
v 6.797811 4.855901 0.0
v 0.220263 4.855901 0.0
v 0.220263 0.133668 0.0
v 1.915944 0.133668 0.0
v 1.8056126118 -2.5144588779 0.0
v 5.4281006552 -2.5144588779 0.0
v 5.4281006552 0.0 0.0
v 7.0047254771 0.0 0.0
v 7.0047254771 5.0289177558 0.0
v 0.0 5.0289177558 0.0
v 0.0 0.0 0.0
v 1.8058063059 0.0 0.0
v 0.0 2.514458877897508 1.3718690280952153
v 3.616856633515859 2.514458877897508 1.3718690280952153
v 7.0047254770852865 2.514458877897508 1.3718690280952153
v 3.616856633515859 -2.514458877897508 1.3718690280952153
l 4 5
l 5 13
l 13 14
l 22 23
l 6 14
l 23 24
l 21 27
l 9 10
l 24 26
l 15 23
l 1 9
l 9 16
l 18 19
l 2 10
l 26 27
l 18 28
l 10 18
l 14 15
l 11 19
l 7 15
l 16 24
l 19 20
l 5 6
l 6 7
l 19 26
l 22 25
l 15 16
l 1 2
l 10 11
l 1 8
l 2 3
l 11 12
l 3 11
l 20 21
l 20 27
l 12 20
l 7 8
l 25 26
l 26 28
l 8 16
l 17 28
l 4 12
l 21 22
l 13 21
l 23 25
l 9 17
l 3 4
l 12 13
l 14 22
l 17 18
l 17 24
