v 1.915762 -2.227449 -5.387966
v 5.317336 -2.227449 -5.387966
v 5.317336 0.133668 -5.387966
v 6.797811 0.133668 -5.387966
v 6.797811 4.855901 -5.387966
v 0.220263 4.855901 -5.387966
v 0.220263 0.133668 -5.387966
v 1.915944 0.133668 -5.387966
v 1.915762 -2.227449 0.0
v 5.317336 -2.227449 0.0
v 5.317336 0.133668 0.0
v 6.797811 0.133668 0.0
v 6.797811 4.855901 0.0
v 0.220263 4.855901 0.0
v 0.220263 0.133668 0.0
v 1.915944 0.133668 0.0
v 1.8056126118 -2.5144588779 0.0
v 5.4281006552 -2.5144588779 0.0
v 5.4281006552 0.0 0.0
v 7.0047254771 0.0 0.0
v 7.0047254771 5.0289177558 0.0
v 0.0 5.0289177558 0.0
v 0.0 0.0 0.0
v 1.8058063059 0.0 0.0
v 0.0 2.514458877897508 1.3718690280952153
v 3.616856633515859 2.514458877897508 1.3718690280952153
v 7.0047254770852865 2.514458877897508 1.3718690280952153
v 3.616856633515859 -2.514458877897508 1.3718690280952153
f 4 5 13 12
f 4 12 13 5
f 5 13 14 6
f 5 6 14 13
f 13 14 22 21
f 13 21 22 14
f 22 23 25
f 22 25 23
f 6 14 15 7
f 6 7 15 14
f 15 23 24 16
f 23 24 26 25
f 23 25 26 24
f 15 16 24 23
f 20 21 27
f 20 27 21
f 1 9 10 2
f 9 10 18 17
f 1 2 10 9
f 9 17 18 10
f 17 24 26 28
f 17 28 26 24
f 14 15 23 22
f 14 22 23 15
f 1 9 16 8
f 1 8 16 9
f 9 16 24 17
f 9 17 24 16
f 18 19 26 28
f 10 18 19 11
f 10 11 19 18
f 18 28 26 19
f 2 10 11 3
f 2 3 11 10
f 19 26 27 20
f 19 20 27 26
f 17 18 28
f 17 28 18
f 11 19 20 12
f 11 12 20 19
f 7 15 16 8
f 7 8 16 15
f 3 11 12 4
f 3 4 12 11
f 12 20 21 13
f 12 13 21 20
f 8 1 2
f 8 2 3
f 3 4 5
f 8 3 5
f 8 5 6
f 6 7 8
f 21 22 25 27
